<svg width="16" height="16" viewBox="0 0 16 16" fill="none" xmlns="http://www.w3.org/2000/svg">
<path d="M7.99998 1.33334C4.31331 1.33334 1.33331 4.31334 1.33331 8.00001C1.33331 11.6867 4.31331 14.6667 7.99998 14.6667C11.6866 14.6667 14.6666 11.6867 14.6666 8.00001C14.6666 4.31334 11.6866 1.33334 7.99998 1.33334ZM10.8666 10.8667C10.805 10.9285 10.7317 10.9775 10.6511 11.011C10.5704 11.0444 10.484 11.0616 10.3966 11.0616C10.3093 11.0616 10.2229 11.0444 10.1422 11.011C10.0616 10.9775 9.98832 10.9285 9.92665 10.8667L7.99998 8.94001L6.07331 10.8667C5.94866 10.9913 5.7796 11.0614 5.60331 11.0614C5.42703 11.0614 5.25796 10.9913 5.13331 10.8667C5.00866 10.742 4.93863 10.573 4.93863 10.3967C4.93863 10.3094 4.95582 10.223 4.98923 10.1423C5.02263 10.0617 5.07159 9.9884 5.13331 9.92668L7.05998 8.00001L5.13331 6.07334C5.00866 5.94869 4.93863 5.77963 4.93863 5.60334C4.93863 5.42706 5.00866 5.25799 5.13331 5.13334C5.25796 5.00869 5.42703 4.93866 5.60331 4.93866C5.7796 4.93866 5.94866 5.00869 6.07331 5.13334L7.99998 7.06001L9.92665 5.13334C9.98837 5.07162 10.0616 5.02266 10.1423 4.98926C10.2229 4.95586 10.3094 4.93866 10.3966 4.93866C10.4839 4.93866 10.5704 4.95586 10.651 4.98926C10.7317 5.02266 10.8049 5.07162 10.8666 5.13334C10.9284 5.19506 10.9773 5.26834 11.0107 5.34898C11.0441 5.42962 11.0613 5.51606 11.0613 5.60334C11.0613 5.69063 11.0441 5.77706 11.0107 5.85771C10.9773 5.93835 10.9284 6.01162 10.8666 6.07334L8.93998 8.00001L10.8666 9.92668C11.12 10.18 11.12 10.6067 10.8666 10.8667Z" fill="white"/>
</svg>
